<svg version="1.1" xmlns="http://www.w3.org/2000/svg" xmlns:xlink="http://www.w3.org/1999/xlink" width="460" height="320" viewBox="0, 0, 460, 320">
  <g id="devices">
    <path d="M221.899,222.097 L307.586,222.097 L307.586,228.65 L221.899,228.65 z M134.777,4.5 L394.706,4.5 C398.46,4.5 401.531,7.572 401.531,11.325 L401.531,178.571 C401.531,182.325 398.46,185.396 394.706,185.396 L290.638,185.396 L290.638,196.012 C290.638,208.512 288.867,205.783 299.13,212.721 L307.62,218.463 L221.863,218.463 C224.694,216.548 227.523,214.635 230.353,212.721 C240.616,205.783 238.845,208.512 238.845,196.012 L238.845,185.396 L134.777,185.396 C131.024,185.396 127.952,182.325 127.952,178.571 L127.952,11.325 C127.952,7.572 131.024,4.5 134.777,4.5 z M264.742,9.006 C266.11,9.006 267.217,10.115 267.217,11.482 C267.217,12.85 266.11,13.957 264.742,13.957 C263.373,13.957 262.266,12.85 262.266,11.482 C262.266,10.115 263.373,9.006 264.742,9.006 z" fill-opacity="0" stroke="#FFFFFF" stroke-width="4" stroke-linecap="round" stroke-linejoin="round"/>
    <path d="M221.399,221.597 L307.086,221.597 L307.086,228.15 L221.399,228.15 z M134.277,4 L394.206,4 C397.96,4 401.031,7.072 401.031,10.825 L401.031,178.071 C401.031,181.825 397.96,184.896 394.206,184.896 L290.138,184.896 L290.138,195.512 C290.138,208.012 288.367,205.283 298.63,212.221 L307.12,217.963 L221.363,217.963 C224.194,216.048 227.023,214.135 229.853,212.221 C240.116,205.283 238.345,208.012 238.345,195.512 L238.345,184.896 L134.277,184.896 C130.524,184.896 127.452,181.825 127.452,178.071 L127.452,10.825 C127.452,7.072 130.524,4 134.277,4 z M264.242,8.506 C265.61,8.506 266.717,9.615 266.717,10.982 C266.717,12.35 265.61,13.457 264.242,13.457 C262.873,13.457 261.766,12.35 261.766,10.982 C261.766,9.615 262.873,8.506 264.242,8.506" fill="#393939"/>
    <path d="M140.177,16.498 L388.307,16.498 L388.307,168.401 L140.177,168.401 z" fill="#FFFFFF"/>
    <path d="M182.175,35.007 L347.556,35.007 C348.986,35.007 350.154,36.177 350.154,37.604 L350.154,82.545 C350.154,83.972 348.986,85.141 347.556,85.141 L182.175,85.141 C180.745,85.141 179.577,83.972 179.577,82.545 L179.577,37.604 C179.577,36.177 180.745,35.007 182.175,35.007" fill="#DADADA"/>
    <path d="M182.175,89.863 L229.896,89.863 C231.325,89.863 232.494,91.032 232.494,92.461 L232.494,118.859 C232.494,120.289 231.325,121.457 229.896,121.457 L182.175,121.457 C180.745,121.457 179.577,120.289 179.577,118.859 L179.577,92.461 C179.577,91.032 180.745,89.863 182.175,89.863" fill="#E4695D"/>
    <path d="M241.07,89.863 L288.791,89.863 C290.221,89.863 291.389,91.032 291.389,92.461 L291.389,118.859 C291.389,120.289 290.221,121.457 288.791,121.457 L241.07,121.457 C239.641,121.457 238.472,120.289 238.472,118.859 L238.472,92.461 C238.472,91.032 239.641,89.863 241.07,89.863" fill="#DADADA"/>
    <path d="M299.965,89.863 L347.687,89.863 C349.116,89.863 350.285,91.032 350.285,92.461 L350.285,118.859 C350.285,120.289 349.116,121.457 347.687,121.457 L299.965,121.457 C298.536,121.457 297.367,120.289 297.367,118.859 L297.367,92.461 C297.367,91.032 298.536,89.863 299.965,89.863" fill="#DADADA"/>
    <path d="M238.472,127.739 L291.389,127.739 L291.389,130.792 L238.472,130.792 z" fill="#DADADA"/>
    <path d="M238.472,134.935 L291.389,134.935 L291.389,137.989 L238.472,137.989 z" fill="#DADADA"/>
    <path d="M238.472,142.13 L277.568,142.13 L277.568,145.183 L238.472,145.183 z" fill="#DADADA"/>
    <path d="M238.472,149.326 L291.389,149.326 L291.389,152.38 L238.472,152.38 z" fill="#DADADA"/>
    <path d="M238.472,156.522 L267.358,156.522 L267.358,159.576 L238.472,159.576 z" fill="#DADADA"/>
    <path d="M297.367,127.739 L350.285,127.739 L350.285,130.792 L297.367,130.792 z" fill="#DADADA"/>
    <path d="M297.367,134.935 L344.463,134.935 L344.463,137.989 L297.367,137.989 z" fill="#DADADA"/>
    <path d="M297.367,142.13 L350.285,142.13 L350.285,145.183 L297.367,145.183 z" fill="#DADADA"/>
    <path d="M297.367,149.326 L350.285,149.326 L350.285,152.38 L297.367,152.38 z" fill="#DADADA"/>
    <path d="M297.367,156.522 L318.709,156.522 L318.709,159.576 L297.367,159.576 z" fill="#DADADA"/>
    <path d="M179.134,156.522 L232.052,156.522 L232.052,159.576 L179.134,159.576 z" fill="#DADADA"/>
    <path d="M179.134,149.328 L218.23,149.328 L218.23,152.381 L179.134,152.381 z" fill="#DADADA"/>
    <path d="M179.134,142.132 L232.052,142.132 L232.052,145.185 L179.134,145.185 z" fill="#DADADA"/>
    <path d="M179.134,134.935 L227.734,134.935 L227.734,137.989 L179.134,137.989 z" fill="#DADADA"/>
    <path d="M179.134,127.739 L215.612,127.739 L215.612,130.792 L179.134,130.792 z" fill="#DADADA"/>
    <path d="M9.509,279.474 L250.047,279.474 C251.61,279.474 252.889,280.755 252.889,282.316 L252.889,288.824 C252.889,290.385 251.608,291.666 250.047,291.666 L9.509,291.666 C7.95,291.666 6.667,290.389 6.667,288.824 L6.667,282.316 C6.667,280.751 7.946,279.474 9.509,279.474 z M30.075,145.157 L229.483,145.157 C233.057,145.157 235.983,148.09 235.983,151.657 L235.983,269.934 C235.983,273.501 233.048,276.434 229.483,276.434 L30.075,276.434 C26.508,276.434 23.573,273.509 23.573,269.934 L23.573,151.657 C23.573,148.081 26.5,145.157 30.075,145.157 z M129.779,149.448 C131.081,149.448 132.136,150.504 132.136,151.807 C132.136,153.109 131.081,154.164 129.779,154.164 C128.477,154.164 127.42,153.109 127.42,151.807 C127.42,150.504 128.477,149.448 129.779,149.448 z" fill-opacity="0" stroke="#FFFFFF" stroke-width="4" stroke-linejoin="round"/>
    <path d="M9.009,278.974 L249.547,278.974 C251.11,278.974 252.389,280.255 252.389,281.816 L252.389,288.324 C252.389,289.885 251.108,291.166 249.547,291.166 L9.009,291.166 C7.45,291.166 6.167,289.889 6.167,288.324 L6.167,281.816 C6.167,280.251 7.446,278.974 9.009,278.974 z M29.575,144.657 L228.983,144.657 C232.557,144.657 235.483,147.59 235.483,151.157 L235.483,269.434 C235.483,273.001 232.548,275.934 228.983,275.934 L29.575,275.934 C26.008,275.934 23.073,273.009 23.073,269.434 L23.073,151.157 C23.073,147.581 26,144.657 29.575,144.657 z M129.279,148.948 C130.581,148.948 131.636,150.004 131.636,151.307 C131.636,152.609 130.581,153.664 129.279,153.664 C127.977,153.664 126.92,152.609 126.92,151.307 C126.92,150.004 127.977,148.948 129.279,148.948" fill="#393939"/>
    <path d="M33.389,157.32 L225.166,157.32 L225.166,265.633 L33.389,265.633 z" fill="#FFFFFF"/>
    <path d="M65.785,181.759 L193.014,181.759 C194.113,181.759 195.011,182.657 195.011,183.756 L195.011,218.327 C195.011,219.427 194.113,220.326 193.014,220.326 L65.785,220.326 C64.685,220.326 63.787,219.427 63.787,218.327 L63.787,183.756 C63.787,182.657 64.685,181.759 65.785,181.759" fill="#DADADA"/>
    <path d="M65.785,223.959 L102.498,223.959 C103.597,223.959 104.495,224.859 104.495,225.958 L104.495,246.266 C104.495,247.365 103.597,248.264 102.498,248.264 L65.785,248.264 C64.685,248.264 63.787,247.365 63.787,246.266 L63.787,225.958 C63.787,224.859 64.685,223.959 65.785,223.959" fill="#E4695D"/>
    <path d="M111.092,223.959 L147.804,223.959 C148.905,223.959 149.803,224.859 149.803,225.958 L149.803,246.266 C149.803,247.365 148.905,248.264 147.804,248.264 L111.092,248.264 C109.993,248.264 109.095,247.365 109.095,246.266 L109.095,225.958 C109.095,224.859 109.993,223.959 111.092,223.959" fill="#DADADA"/>
    <path d="M156.4,223.959 L193.113,223.959 C194.212,223.959 195.111,224.859 195.111,225.958 L195.111,246.266 C195.111,247.365 194.212,248.264 193.113,248.264 L156.4,248.264 C155.301,248.264 154.401,247.365 154.401,246.266 L154.401,225.958 C154.401,224.859 155.301,223.959 156.4,223.959" fill="#DADADA"/>
    <path d="M109.095,253.096 L149.805,253.096 L149.805,255.444 L109.095,255.444 z" fill="#DADADA"/>
    <path d="M109.095,258.633 L149.805,258.633 L149.805,260.982 L109.095,260.982 z" fill="#DADADA"/>
    <path d="M154.403,253.096 L195.111,253.096 L195.111,255.444 L154.403,255.444 z" fill="#DADADA"/>
    <path d="M154.403,258.633 L190.634,258.633 L190.634,260.982 L154.403,260.982 z" fill="#DADADA"/>
    <path d="M63.447,258.633 L100.834,258.633 L100.834,260.982 L63.447,260.982 z" fill="#DADADA"/>
    <path d="M63.447,253.097 L91.509,253.097 L91.509,255.446 L63.447,255.446 z" fill="#DADADA"/>
    <path d="M448.155,110.484 L351.796,110.484 C348.4,110.484 345.62,113.274 345.62,116.661 L345.62,246.005 C345.62,249.392 348.409,252.183 351.796,252.183 L448.155,252.183 C451.542,252.183 454.333,249.403 454.333,246.005 L454.333,116.661 C454.333,113.264 451.552,110.484 448.155,110.484 z M399.976,114.188 C398.739,114.188 397.735,115.192 397.735,116.43 C397.735,117.667 398.739,118.669 399.976,118.669 C401.214,118.669 402.216,117.667 402.216,116.43 C402.216,115.192 401.214,114.188 399.976,114.188 z" fill-opacity="0" stroke="#FFFFFF" stroke-width="4" stroke-linecap="round" stroke-linejoin="round"/>
    <path d="M447.655,109.984 L351.296,109.984 C347.9,109.984 345.12,112.774 345.12,116.161 L345.12,245.505 C345.12,248.892 347.909,251.683 351.296,251.683 L447.655,251.683 C451.042,251.683 453.833,248.903 453.833,245.505 L453.833,116.161 C453.833,112.764 451.052,109.984 447.655,109.984 z M399.476,113.688 C398.239,113.688 397.235,114.692 397.235,115.93 C397.235,117.167 398.239,118.169 399.476,118.169 C400.714,118.169 401.716,117.167 401.716,115.93 C401.716,114.692 400.714,113.688 399.476,113.688" fill="#393939"/>
    <path d="M356.504,121.98 L442.448,121.98 L442.448,239.684 L356.504,239.684 z" fill="#FFFFFF"/>
    <path d="M364.467,135.828 L434.781,135.828 C435.946,135.828 436.9,136.781 436.9,137.946 L436.9,174.609 C436.9,175.772 435.946,176.726 434.781,176.726 L364.467,176.726 C363.302,176.726 362.348,175.772 362.348,174.609 L362.348,137.946 C362.348,136.781 363.302,135.828 364.467,135.828" fill="#DADADA"/>
    <path d="M364.467,180.579 L395.794,180.579 C396.959,180.579 397.913,181.533 397.913,182.698 L397.913,204.234 C397.913,205.399 396.959,206.353 395.794,206.353 L364.467,206.353 C363.302,206.353 362.348,205.399 362.348,204.234 L362.348,182.698 C362.348,181.533 363.302,180.579 364.467,180.579" fill="#E4695D"/>
    <path d="M403.454,180.579 L434.781,180.579 C435.946,180.579 436.9,181.533 436.9,182.698 L436.9,204.234 C436.9,205.399 435.946,206.353 434.781,206.353 L403.454,206.353 C402.289,206.353 401.335,205.399 401.335,204.234 L401.335,182.698 C401.335,181.533 402.289,180.579 403.454,180.579" fill="#DADADA"/>
    <path d="M401.337,211.476 L436.902,211.476 L436.902,213.967 L401.337,213.967 z" fill="#DADADA"/>
    <path d="M401.337,217.347 L436.902,217.347 L436.902,219.838 L401.337,219.838 z" fill="#DADADA"/>
    <path d="M401.337,223.218 L427.613,223.218 L427.613,225.709 L401.337,225.709 z" fill="#DADADA"/>
    <path d="M401.337,229.089 L436.902,229.089 L436.902,231.579 L401.337,231.579 z" fill="#DADADA"/>
    <path d="M401.337,234.96 L420.75,234.96 L420.75,237.45 L401.337,237.45 z" fill="#DADADA"/>
    <path d="M362.051,234.96 L397.616,234.96 L397.616,237.45 L362.051,237.45 z" fill="#DADADA"/>
    <path d="M362.051,229.089 L388.327,229.089 L388.327,231.579 L362.051,231.579 z" fill="#DADADA"/>
    <path d="M362.051,223.218 L397.616,223.218 L397.616,225.709 L362.051,225.709 z" fill="#DADADA"/>
    <path d="M362.051,217.349 L394.715,217.349 L394.715,219.839 L362.051,219.839 z" fill="#DADADA"/>
    <path d="M362.051,211.478 L386.568,211.478 L386.568,213.968 L362.051,213.968 z" fill="#DADADA"/>
    <path d="M383.707,218.88 L340.867,218.88 C337.113,218.88 334.042,222.001 334.042,225.707 L334.042,309.673 C334.042,313.379 337.163,316.5 340.867,316.5 L383.707,316.5 C387.413,316.5 390.534,313.428 390.534,309.673 L390.534,225.707 C390.534,221.952 387.462,218.88 383.707,218.88 z" fill-opacity="0" stroke="#FFFFFF" stroke-width="4" stroke-linecap="round" stroke-linejoin="round"/>
    <path d="M383.207,218.38 L340.367,218.38 C336.613,218.38 333.542,221.501 333.542,225.207 L333.542,309.173 C333.542,312.879 336.663,316 340.367,316 L383.207,316 C386.913,316 390.034,312.928 390.034,309.173 L390.034,225.207 C390.034,221.452 386.962,218.38 383.207,218.38" fill="#393939"/>
    <path d="M361.787,302.169 C359.607,302.169 357.837,303.936 357.837,306.118 C357.837,308.3 359.607,310.068 361.787,310.068 C363.969,310.068 365.737,308.3 365.737,306.118 C365.737,303.936 363.969,302.169 361.787,302.169" fill="#FFFFFF"/>
    <path d="M370.535,226.568 L353.041,226.568 C352.404,226.568 351.884,227.088 351.884,227.724 C351.884,228.361 352.404,228.881 353.041,228.881 L370.535,228.881 C371.172,228.881 371.69,228.361 371.69,227.724 C371.69,227.088 371.172,226.568 370.535,226.568" fill="#FFFFFF"/>
    <path d="M338.835,233.273 L384.741,233.273 L384.741,294.19 L338.835,294.19 z" fill="#FFFFFF"/>
    <path d="M379.418,238.459 L343.976,238.459 C343.456,238.459 343.031,238.885 343.031,239.405 L343.031,255.768 C343.031,256.289 343.456,256.714 343.976,256.714 L379.418,256.714 C379.938,256.714 380.362,256.289 380.362,255.768 L380.362,239.405 C380.362,238.885 379.938,238.459 379.418,238.459" fill="#DADADA"/>
    <path d="M378.201,259.717 L344.96,259.717 C343.899,259.717 343.031,260.587 343.031,261.647 L343.031,278.712 C343.031,279.771 343.902,280.641 344.96,280.641 L378.201,280.641 C379.261,280.641 380.131,279.773 380.131,278.712 L380.131,261.647 C380.131,260.586 379.263,259.717 378.201,259.717" fill="#E4695D"/>
    <path d="M343.03,288.583 L375.694,288.583 L375.694,290.803 L343.03,290.803 z" fill="#DADADA"/>
    <path d="M343.03,283.351 L367.547,283.351 L367.547,285.571 L343.03,285.571 z" fill="#DADADA"/>
    <path d="M399.476,112.142 C397.294,112.142 395.527,113.909 395.527,116.091 C395.527,118.273 397.294,120.041 399.476,120.041 C401.657,120.041 403.426,118.273 403.426,116.091 C403.426,113.909 401.657,112.142 399.476,112.142" fill="#FFFFFF"/>
    <path d="M129.279,147.375 C127.097,147.375 125.329,149.143 125.329,151.325 C125.329,153.507 127.097,155.275 129.279,155.275 C131.461,155.275 133.229,153.507 133.229,151.325 C133.229,149.143 131.461,147.375 129.279,147.375" fill="#FFFFFF"/>
    <path d="M264.242,6.685 C262.06,6.685 260.292,8.453 260.292,10.635 C260.292,12.817 262.06,14.585 264.242,14.585 C266.422,14.585 268.191,12.817 268.191,10.635 C268.191,8.453 266.422,6.685 264.242,6.685" fill="#FFFFFF"/>
  </g>
</svg>
